<mxfile host="app.diagrams.net" modified="2022-10-21T07:46:43.957Z" agent="5.0 (Windows NT 10.0; Win64; x64) AppleWebKit/537.36 (KHTML, like Gecko) Chrome/106.0.0.0 Safari/537.36" etag="mMW6NaHLvlr6pqKuofMn" version="20.4.2" type="github" pages="3">
  <diagram id="R2lEEEUBdFMjLlhIrx00" name="8">
    <mxGraphModel dx="1929" dy="1022" grid="1" gridSize="10" guides="1" tooltips="1" connect="1" arrows="0" fold="1" page="1" pageScale="1" pageWidth="1169" pageHeight="827" math="0" shadow="0" extFonts="Permanent Marker^https://fonts.googleapis.com/css?family=Permanent+Marker">
      <root>
        <mxCell id="0" />
        <mxCell id="1" parent="0" />
      </root>
    </mxGraphModel>
  </diagram>
  <diagram id="iBQhyxXvgUd7s5Fce_nC" name="9">
    <mxGraphModel dx="560" dy="297" grid="1" gridSize="10" guides="1" tooltips="1" connect="1" arrows="0" fold="1" page="1" pageScale="1" pageWidth="1169" pageHeight="827" math="0" shadow="0">
      <root>
        <mxCell id="0" />
        <mxCell id="1" parent="0" />
        <mxCell id="g4FMtZ5G79S8W34q7UUM-1" style="edgeStyle=orthogonalEdgeStyle;rounded=0;orthogonalLoop=1;jettySize=auto;html=1;exitX=0.5;exitY=1;exitDx=0;exitDy=0;entryX=0.5;entryY=0;entryDx=0;entryDy=0;endArrow=none;endFill=0;" edge="1" parent="1" source="g4FMtZ5G79S8W34q7UUM-2" target="g4FMtZ5G79S8W34q7UUM-5">
          <mxGeometry relative="1" as="geometry" />
        </mxCell>
        <mxCell id="g4FMtZ5G79S8W34q7UUM-2" value="USUARIO" style="whiteSpace=wrap;html=1;align=center;fillColor=#a20025;fontColor=#ffffff;strokeColor=#6F0000;" vertex="1" parent="1">
          <mxGeometry x="535" y="40" width="100" height="40" as="geometry" />
        </mxCell>
        <mxCell id="g4FMtZ5G79S8W34q7UUM-10" style="edgeStyle=orthogonalEdgeStyle;rounded=0;orthogonalLoop=1;jettySize=auto;html=1;exitX=0.5;exitY=1;exitDx=0;exitDy=0;entryX=0;entryY=0.5;entryDx=0;entryDy=0;endArrow=none;endFill=0;startArrow=none;" edge="1" parent="1" source="g4FMtZ5G79S8W34q7UUM-11" target="g4FMtZ5G79S8W34q7UUM-9">
          <mxGeometry relative="1" as="geometry" />
        </mxCell>
        <mxCell id="g4FMtZ5G79S8W34q7UUM-13" style="edgeStyle=orthogonalEdgeStyle;rounded=0;orthogonalLoop=1;jettySize=auto;html=1;exitX=0.5;exitY=1;exitDx=0;exitDy=0;entryX=0.5;entryY=0;entryDx=0;entryDy=0;endArrow=none;endFill=0;" edge="1" parent="1" source="g4FMtZ5G79S8W34q7UUM-3" target="g4FMtZ5G79S8W34q7UUM-11">
          <mxGeometry relative="1" as="geometry" />
        </mxCell>
        <mxCell id="g4FMtZ5G79S8W34q7UUM-3" value="WEB" style="whiteSpace=wrap;html=1;align=center;fillColor=#a20025;fontColor=#ffffff;strokeColor=#6F0000;" vertex="1" parent="1">
          <mxGeometry x="535" y="220" width="100" height="40" as="geometry" />
        </mxCell>
        <mxCell id="g4FMtZ5G79S8W34q7UUM-4" style="edgeStyle=orthogonalEdgeStyle;rounded=0;orthogonalLoop=1;jettySize=auto;html=1;exitX=0.5;exitY=1;exitDx=0;exitDy=0;entryX=0.5;entryY=0;entryDx=0;entryDy=0;endArrow=none;endFill=0;" edge="1" parent="1" source="g4FMtZ5G79S8W34q7UUM-5" target="g4FMtZ5G79S8W34q7UUM-3">
          <mxGeometry relative="1" as="geometry" />
        </mxCell>
        <mxCell id="g4FMtZ5G79S8W34q7UUM-5" value="CREA" style="shape=rhombus;perimeter=rhombusPerimeter;whiteSpace=wrap;html=1;align=center;fillColor=#6a00ff;fontColor=#ffffff;strokeColor=#3700CC;" vertex="1" parent="1">
          <mxGeometry x="525" y="120" width="120" height="60" as="geometry" />
        </mxCell>
        <mxCell id="g4FMtZ5G79S8W34q7UUM-15" style="edgeStyle=orthogonalEdgeStyle;rounded=0;orthogonalLoop=1;jettySize=auto;html=1;exitX=1;exitY=0.5;exitDx=0;exitDy=0;entryX=0.5;entryY=0;entryDx=0;entryDy=0;endArrow=none;endFill=0;" edge="1" parent="1" source="g4FMtZ5G79S8W34q7UUM-9" target="g4FMtZ5G79S8W34q7UUM-14">
          <mxGeometry relative="1" as="geometry" />
        </mxCell>
        <mxCell id="g4FMtZ5G79S8W34q7UUM-17" style="rounded=0;orthogonalLoop=1;jettySize=auto;html=1;exitX=0.5;exitY=0;exitDx=0;exitDy=0;entryX=0;entryY=0;entryDx=0;entryDy=0;endArrow=none;endFill=0;" edge="1" parent="1" source="g4FMtZ5G79S8W34q7UUM-9" target="g4FMtZ5G79S8W34q7UUM-16">
          <mxGeometry relative="1" as="geometry" />
        </mxCell>
        <mxCell id="g4FMtZ5G79S8W34q7UUM-19" style="edgeStyle=none;rounded=0;orthogonalLoop=1;jettySize=auto;html=1;exitX=0.5;exitY=1;exitDx=0;exitDy=0;entryX=1;entryY=0;entryDx=0;entryDy=0;endArrow=none;endFill=0;" edge="1" parent="1" source="g4FMtZ5G79S8W34q7UUM-9" target="g4FMtZ5G79S8W34q7UUM-18">
          <mxGeometry relative="1" as="geometry" />
        </mxCell>
        <mxCell id="g4FMtZ5G79S8W34q7UUM-9" value="ES" style="triangle;whiteSpace=wrap;html=1;rotation=90;fillColor=#6a00ff;fontColor=#ffffff;strokeColor=#3700CC;" vertex="1" parent="1">
          <mxGeometry x="555" y="300" width="60" height="80" as="geometry" />
        </mxCell>
        <mxCell id="g4FMtZ5G79S8W34q7UUM-11" value="" style="ellipse;whiteSpace=wrap;html=1;aspect=fixed;fillColor=#6a00ff;fontColor=#ffffff;strokeColor=#3700CC;" vertex="1" parent="1">
          <mxGeometry x="575" y="270" width="20" height="20" as="geometry" />
        </mxCell>
        <mxCell id="g4FMtZ5G79S8W34q7UUM-14" value="BLOG" style="whiteSpace=wrap;html=1;align=center;fillColor=#a20025;strokeColor=#6F0000;fontColor=#ffffff;" vertex="1" parent="1">
          <mxGeometry x="535" y="410" width="100" height="40" as="geometry" />
        </mxCell>
        <mxCell id="g4FMtZ5G79S8W34q7UUM-16" value="WIKI" style="whiteSpace=wrap;html=1;align=center;fillColor=#a20025;strokeColor=#6F0000;fontColor=#ffffff;" vertex="1" parent="1">
          <mxGeometry x="645" y="370" width="100" height="40" as="geometry" />
        </mxCell>
        <mxCell id="g4FMtZ5G79S8W34q7UUM-18" value="CONVENCIONAL" style="whiteSpace=wrap;html=1;align=center;fillColor=#a20025;strokeColor=#6F0000;fontColor=#ffffff;" vertex="1" parent="1">
          <mxGeometry x="425" y="370" width="100" height="40" as="geometry" />
        </mxCell>
        <mxCell id="g4FMtZ5G79S8W34q7UUM-25" value="" style="endArrow=none;html=1;rounded=0;curved=1;edgeStyle=orthogonalEdgeStyle;" edge="1" parent="1">
          <mxGeometry width="50" height="50" relative="1" as="geometry">
            <mxPoint x="530" y="350" as="sourcePoint" />
            <mxPoint x="640" y="350" as="targetPoint" />
            <Array as="points">
              <mxPoint x="530" y="380" />
              <mxPoint x="640" y="380" />
            </Array>
          </mxGeometry>
        </mxCell>
      </root>
    </mxGraphModel>
  </diagram>
  <diagram id="P6Pk52WjvPNlLAwaFHjC" name="10">
    <mxGraphModel dx="8680" dy="4600" grid="1" gridSize="10" guides="1" tooltips="1" connect="1" arrows="0" fold="1" page="1" pageScale="1" pageWidth="2339" pageHeight="3300" math="0" shadow="0">
      <root>
        <mxCell id="0" />
        <mxCell id="1" parent="0" />
      </root>
    </mxGraphModel>
  </diagram>
</mxfile>
